# xmcd
#
# Track frame offsets:
# 150
# 23681
# 41626
# 52272
# 69019
# 95615
# 114276
# 121207
#
# Disc length: 1782 seconds
#
#
# Revision: 0
# Processed by: cddbd v1.5.2PL0 Copyright (c) Steve Scherf et al.
# Submitted via: FreeRIP 2.943 
#
DISCID=6106f408
DTITLE=gospel of the future - s-t
DYEAR=2007
DGENRE=Sludge
TTITLE0=cabal
TTITLE1=the power of black sun
TTITLE2=brotherhood of freak fountain
TTITLE3=caves have ears
TTITLE4=5ive
TTITLE5=dark bell
TTITLE6=ministry of occultism
TTITLE7=moonwalk hunters and cavalry of dead men
EXTD=zz
EXTT0=
EXTT1=
EXTT2=
EXTT3=
EXTT4=
EXTT5=
EXTT6=
EXTT7=
PLAYORDER=
